<?xml version="1.0" standalone="no"?>
<!DOCTYPE svg PUBLIC "-//W3C//DTD SVG 20010904//EN"
 "http://www.w3.org/TR/2001/REC-SVG-20010904/DTD/svg10.dtd">
<svg version="1.0" xmlns="http://www.w3.org/2000/svg"
 width="79.000000pt" height="79.000000pt" viewBox="0 0 79.000000 79.000000"
 preserveAspectRatio="xMidYMid meet">
<metadata>
Created by potrace 1.11, written by Peter Selinger 2001-2013
</metadata>
<g transform="translate(0.000000,79.000000) scale(0.100000,-0.100000)"
fill="#000000" stroke="none">
<path d="M408 690 c-7 -11 -19 -20 -26 -20 -7 0 -38 -16 -68 -35 -40 -26 -59
-33 -71 -26 -11 5 -25 5 -40 -2 -22 -10 -28 -28 -25 -71 3 -22 -24 -20 -142
12 -20 6 -36 7 -36 3 0 -4 28 -14 63 -22 l62 -15 -40 -20 c-26 -12 -40 -26
-41 -39 -1 -11 -4 -29 -8 -41 -3 -11 0 -37 8 -56 9 -20 13 -53 11 -78 -3 -23
0 -50 5 -59 8 -14 9 -14 10 2 0 21 -2 21 48 -3 23 -11 45 -20 49 -19 30 5 53
-4 58 -22 7 -21 7 -21 19 2 6 13 16 24 21 24 22 2 55 17 55 26 0 6 7 6 19 0
15 -9 18 -18 14 -56 -5 -44 8 -63 21 -30 5 14 8 14 29 1 22 -15 53 -24 88 -25
9 -1 20 -11 23 -23 6 -23 7 -23 22 5 8 15 20 27 27 27 30 1 56 36 58 80 2 25
11 59 21 75 9 17 18 45 20 63 3 36 4 37 76 18 28 -8 52 -11 52 -6 0 4 -9 10
-20 13 -11 3 -20 14 -20 24 0 10 -8 34 -17 53 -15 29 -16 45 -9 93 5 31 7 59
4 62 -3 3 -19 0 -35 -6 -26 -9 -39 -7 -80 14 -26 13 -67 30 -91 37 -24 8 -52
24 -62 37 -22 28 -36 29 -52 3z m2 -244 c0 -11 -19 -15 -25 -6 -3 5 1 10 9 10
9 0 16 -2 16 -4z m-339 -106 c-3 -9 -8 -3 -13 15 -4 17 -5 37 -1 45 8 19 22
-38 14 -60z m6 -52 c-3 -7 -5 -2 -5 12 0 14 2 19 5 13 2 -7 2 -19 0 -25z m555
10 c-7 -7 -12 -8 -12 -2 0 14 12 26 19 19 2 -3 -1 -11 -7 -17z"/>
</g>
</svg>
