<?xml version="1.0" standalone="no"?>
<!DOCTYPE svg PUBLIC "-//W3C//DTD SVG 20010904//EN"
 "http://www.w3.org/TR/2001/REC-SVG-20010904/DTD/svg10.dtd">
<svg version="1.0" xmlns="http://www.w3.org/2000/svg"
 width="419.000000pt" height="419.000000pt" viewBox="0 0 419.000000 419.000000"
 preserveAspectRatio="xMidYMid meet">
<metadata>
Created by potrace 1.16, written by Peter Selinger 2001-2019
</metadata>
<g transform="translate(0.000000,419.000000) scale(0.100000,-0.109974)"
fill="#000000" stroke="none">
<path d="M1823 3775 c-185 -62 -341 -155 -473 -281 -159 -152 -210 -251 -197
-388 l6 -63 -62 -5 c-106 -9 -175 -58 -219 -153 -19 -42 -22 -67 -22 -157 0
-60 -1 -108 -2 -108 -1 0 -190 45 -419 100 -229 55 -421 100 -426 100 -5 0 -9
-11 -9 -25 0 -14 3 -25 7 -25 4 0 268 -63 587 -139 580 -139 626 -149 786
-171 117 -16 305 -64 376 -95 94 -42 978 -252 1182 -280 225 -32 328 -58 463
-116 49 -21 749 -199 783 -199 3 0 6 11 6 25 0 14 -6 25 -13 25 -11 0 -16 30
-21 124 -12 239 -65 445 -163 641 -30 61 -75 173 -100 249 -51 156 -125 307
-198 411 -184 258 -466 445 -810 536 l-110 29 -425 0 -425 0 -102 -35z m522
-44 c-6 -5 -68 -28 -140 -51 -71 -23 -136 -49 -142 -58 -28 -35 -2 -92 43 -92
25 0 282 87 302 103 19 15 14 64 -10 87 l-22 20 25 0 c56 -1 221 -21 319 -41
531 -103 888 -402 1055 -880 74 -213 107 -429 109 -721 0 -108 -1 -199 -4
-201 -3 -3 -20 -2 -39 1 l-34 7 -32 130 c-116 463 -337 812 -682 1078 -405
311 -1053 482 -1480 388 -85 -18 -100 -16 -60 8 198 127 349 185 558 215 109
16 248 20 234 7z m-260 -339 c19 -7 23 -11 11 -11 -39 -2 -232 -73 -316 -117
-105 -54 -223 -132 -341 -224 l-86 -68 -31 20 c-25 16 -33 30 -43 76 -12 60
-7 128 13 170 27 53 244 137 421 162 76 11 331 5 372 -8z m556 -147 c362 -159
654 -415 828 -727 l35 -63 -65 66 c-90 91 -168 129 -263 129 -94 0 -160 -36
-212 -115 -28 -42 -43 -55 -61 -55 -35 0 -61 -16 -78 -51 -21 -39 -5 -95 31
-111 23 -11 24 -16 24 -98 l0 -87 -152 36 c-84 21 -508 122 -942 227 -907 217
-808 176 -810 336 -1 83 2 100 20 124 39 53 68 67 137 67 107 -1 168 -45 229
-163 29 -57 37 -65 64 -68 35 -3 64 19 64 49 0 11 -14 47 -30 82 l-30 62 32
28 c50 43 254 179 338 225 124 67 286 124 405 141 33 5 122 9 197 10 l138 1
101 -45z m626 -736 c96 -46 211 -218 273 -408 37 -114 38 -135 8 -128 -13 3
-141 34 -284 68 l-262 62 -5 61 c-14 139 26 283 93 340 40 33 114 36 177 5z
m762 -444 c17 -163 18 -216 3 -210 -8 3 -18 5 -23 5 -5 0 -9 72 -9 168 1 184
12 198 29 37z"/>
<path d="M2781 3546 c-161 -51 -191 -68 -191 -106 0 -24 32 -50 61 -50 30 0
349 98 367 112 15 13 16 70 0 86 -20 20 -67 12 -237 -42z"/>
<path d="M3265 3209 c-84 -7 -103 -12 -117 -30 -22 -26 -22 -38 -2 -67 18 -26
59 -28 249 -11 127 11 155 22 155 64 0 56 -49 63 -285 44z"/>
<path d="M3525 2726 c-11 -17 -13 -30 -6 -48 12 -32 22 -36 137 -50 86 -10 96
-10 114 7 23 21 27 67 7 84 -15 12 -130 31 -194 31 -34 0 -46 -5 -58 -24z"/>
<path d="M1863 2766 c-22 -19 -28 -32 -28 -66 0 -35 6 -47 34 -72 41 -37 82
-33 124 12 29 33 34 58 16 93 -30 59 -98 74 -146 33z"/>
<path d="M2178 2679 c-12 -7 -18 -22 -18 -47 0 -49 19 -84 54 -101 24 -11 34
-11 66 2 37 14 37 14 67 -19 25 -28 37 -34 70 -34 35 0 46 6 77 40 38 43 43
59 24 78 -19 19 -49 14 -70 -13 -28 -35 -41 -31 -66 20 -25 52 -43 56 -92 20
-44 -33 -50 -32 -50 8 0 50 -25 68 -62 46z"/>
<path d="M200 2303 c-26 -23 -33 -39 -36 -74 -3 -26 1 -52 8 -62 11 -15 13 -9
13 37 0 47 4 59 29 85 39 40 27 51 -14 14z"/>
<path d="M988 2313 c7 -3 16 -2 19 1 4 3 -2 6 -13 5 -11 0 -14 -3 -6 -6z"/>
<path d="M1108 2309 c15 -6 30 -5 40 1 13 7 8 9 -23 9 -35 0 -37 -1 -17 -10z"/>
<path d="M938 2299 c-48 -28 15 -59 130 -64 48 -2 76 -1 62 1 -14 3 -31 10
-37 16 -7 6 -24 8 -37 4 -15 -4 -28 0 -37 10 -9 11 -22 14 -46 9 -36 -6 -45 7
-15 24 9 6 13 10 7 10 -5 0 -18 -4 -27 -10z"/>
<path d="M1207 2283 c-14 -13 -6 -18 28 -18 37 0 46 9 19 19 -20 8 -39 8 -47
-1z"/>
<path d="M1930 2246 c0 -4 9 -19 20 -33 22 -28 27 -101 10 -134 -7 -13 -7 -19
-1 -19 6 0 18 14 26 31 23 43 12 99 -26 135 -16 15 -29 24 -29 20z"/>
<path d="M103 2190 c-14 -38 -10 -297 5 -312 16 -16 15 -31 -2 -25 -17 7 -46
-33 -46 -63 0 -28 20 -26 21 3 l0 22 9 -22 c13 -32 18 -29 36 17 11 27 22 40
35 40 20 0 26 15 9 25 -12 7 -12 16 -1 33 6 11 19 7 57 -16 103 -63 414 -141
649 -163 145 -13 181 -27 201 -75 10 -24 26 -40 49 -50 21 -8 41 -27 51 -47
24 -48 55 -77 80 -77 20 0 23 6 26 48 3 40 6 47 26 50 19 3 22 -1 22 -30 0
-25 -3 -29 -10 -18 -5 8 -10 10 -10 4 0 -5 7 -19 15 -30 8 -10 15 -28 15 -39
1 -18 2 -18 10 3 29 70 31 -41 4 -203 -9 -49 -16 -95 -16 -100 -1 -6 -10 -12
-21 -12 -17 -2 -18 3 -12 50 3 29 13 87 21 131 17 95 18 114 4 100 -6 -6 -15
-48 -20 -95 -6 -46 -17 -120 -26 -164 -9 -44 -20 -123 -24 -175 -16 -177 -23
-225 -33 -232 -22 -14 -27 6 -28 110 -1 59 -3 98 -6 87 -8 -37 -25 -75 -34
-75 -5 0 -17 -16 -26 -35 -18 -38 -14 -37 -143 -35 -307 4 -618 110 -666 226
-13 31 -18 34 -54 34 l-40 0 0 47 c0 56 -8 52 -16 -8 -8 -65 -11 -71 -34 -64
-18 6 -20 2 -20 -42 0 -27 -5 -54 -12 -61 -23 -23 13 -41 97 -48 71 -6 84 -10
116 -39 124 -111 409 -194 671 -195 51 0 80 -4 85 -13 14 -22 62 -37 118 -37
45 0 55 3 60 20 3 11 4 24 1 28 -3 5 36 17 87 27 193 37 311 97 353 178 18 34
13 43 -34 57 -88 27 -94 31 -86 59 3 14 8 58 9 97 1 40 6 77 10 84 4 7 3 15
-3 19 -16 10 -3 87 19 110 16 17 16 21 3 32 -13 10 -13 14 1 29 8 9 16 33 17
53 3 34 5 37 33 37 17 -1 43 -7 59 -13 26 -11 32 -10 52 10 23 23 54 31 54 14
0 -5 -6 -12 -12 -14 -10 -4 -10 -6 0 -6 8 -1 6 -11 -9 -30 -24 -33 -22 -52 13
-134 25 -57 33 -58 13 -2 -18 52 -18 65 1 65 9 0 23 17 32 40 15 36 42 55 42
30 0 -6 12 -15 26 -20 21 -9 29 -7 40 7 12 17 13 16 14 -7 0 -14 4 -31 9 -39
7 -10 11 -5 16 18 4 17 17 38 29 46 20 14 29 13 87 -5 152 -49 317 -89 449
-110 36 -6 74 -12 85 -14 11 -2 30 -4 43 -5 17 -1 29 -15 49 -56 20 -41 35
-57 58 -65 19 -6 37 -24 50 -47 20 -37 76 -83 101 -83 10 0 14 15 14 50 0 45
2 50 25 56 32 8 35 5 42 -45 3 -23 9 -41 12 -41 11 0 56 51 75 85 10 17 31 38
47 48 16 9 37 30 47 48 32 59 51 77 89 84 64 11 159 43 214 71 43 22 56 24 72
15 25 -16 43 -1 50 42 3 18 13 70 22 117 8 47 12 99 9 115 -8 37 -66 118 -105
146 -33 23 -36 15 -14 -38 18 -42 20 -112 4 -147 -23 -49 -141 -95 -314 -122
-120 -19 -422 -21 -575 -5 -296 32 -581 115 -679 197 -66 55 -75 108 -36 193
22 46 23 52 8 47 -12 -4 -10 0 5 10 18 13 22 26 22 65 0 29 -4 49 -11 49 -6 0
-43 -16 -83 -35 -176 -86 -379 -119 -726 -119 -563 0 -1000 111 -1096 279 -12
19 -12 19 -21 -5z m512 -264 c63 -18 18 -19 -50 -1 -32 8 -41 13 -25 14 14 0
48 -6 75 -13z m1352 -14 c-20 -22 -23 -112 -5 -145 10 -21 10 -21 -7 -7 -10 8
-26 28 -36 44 -21 35 -12 70 29 103 33 28 41 30 19 5z m-357 -22 c-14 -4 -34
-8 -45 -8 -16 0 -15 2 5 8 14 4 34 8 45 8 16 0 15 -2 -5 -8z m248 -209 c-2
-60 -6 -113 -10 -117 -13 -12 -63 16 -80 45 -12 22 -14 39 -8 66 13 60 30 92
53 103 48 23 49 19 45 -97z m1793 -34 l-20 -21 17 38 c12 26 18 33 20 21 2
-10 -5 -27 -17 -38z m-1381 -102 c19 -7 28 -13 20 -13 -8 0 -31 6 -50 13 -19
7 -28 13 -20 13 8 0 31 -6 50 -13z m1203 -46 c-19 -19 -117 -39 -188 -38 -83
1 -62 10 75 32 113 19 127 20 113 6z m-1947 -106 c-8 -99 -28 -217 -39 -228
-12 -12 -3 110 12 175 6 25 13 62 16 83 10 62 16 42 11 -30z m1542 -175 c14
-14 16 -58 3 -58 -6 0 -13 5 -16 10 -3 6 -15 10 -26 10 -24 0 -25 26 -1 39 22
13 26 13 40 -1z m-1747 -149 c-10 -23 -10 -23 -10 7 -1 17 2 34 7 38 11 12 14
-18 3 -45z m-781 -193 c32 -13 101 -34 154 -46 100 -22 127 -39 107 -64 -9
-11 -28 -13 -69 -10 -107 9 -139 15 -158 29 -16 12 -13 12 21 0 43 -14 190
-24 201 -13 12 12 -6 26 -42 33 -23 4 -39 2 -44 -4 -7 -12 -70 -4 -70 10 0 4
14 4 30 -1 17 -5 30 -5 30 0 0 4 -28 15 -62 23 -35 8 -72 17 -83 21 -20 8 -20
7 -1 -8 25 -20 7 -21 -20 -1 -15 11 -16 15 -4 15 8 1 -5 10 -30 20 -25 10 -39
19 -32 19 7 1 39 -10 72 -23z m-15 -53 l30 -25 -40 22 c-50 29 -63 40 -39 34
10 -3 33 -17 49 -31z m100 -3 c8 -13 -15 -13 -35 0 -12 8 -11 10 7 10 12 0 25
-4 28 -10z"/>
<path d="M2617 1938 c-64 -23 -4 -71 113 -89 77 -12 189 -6 221 12 71 37 -54
89 -211 88 -52 0 -108 -5 -123 -11z m148 -14 c14 -9 35 -14 47 -11 13 3 32 -1
42 -9 11 -8 35 -14 54 -14 42 0 33 -16 -18 -31 -30 -9 -53 -9 -102 0 -75 15
-118 30 -118 42 0 8 48 38 63 39 4 0 19 -7 32 -16z"/>
<path d="M2728 1893 c6 -2 18 -2 25 0 6 3 1 5 -13 5 -14 0 -19 -2 -12 -5z"/>
<path d="M2813 1873 c9 -2 25 -2 35 0 9 3 1 5 -18 5 -19 0 -27 -2 -17 -5z"/>
<path d="M1717 1423 c-14 -13 -6 -33 13 -33 22 0 23 1 14 24 -7 17 -16 20 -27
9z"/>
<path d="M1700 1300 c8 -5 22 -9 30 -9 10 0 8 3 -5 9 -27 12 -43 12 -25 0z"/>
<path d="M3040 1095 c0 -8 5 -15 10 -15 6 0 10 7 10 15 0 8 -4 15 -10 15 -5 0
-10 -7 -10 -15z"/>
<path d="M2053 885 c0 -22 2 -30 4 -17 2 12 2 30 0 40 -3 9 -5 -1 -4 -23z"/>
<path d="M1782 878 c3 -29 6 -33 33 -33 23 0 31 5 33 21 2 17 -5 24 -29 33
-42 15 -41 16 -37 -21z"/>
<path d="M1991 894 c0 -11 3 -14 6 -6 3 7 2 16 -1 19 -3 4 -6 -2 -5 -13z"/>
<path d="M225 873 c11 -3 23 -10 27 -17 5 -7 8 -5 8 7 0 12 -7 17 -27 16 -22
-1 -23 -2 -8 -6z"/>
<path d="M2299 868 c-36 -30 -52 -112 -29 -148 7 -11 10 -1 10 35 0 62 10 80
41 72 130 -31 139 -39 139 -119 0 -45 -3 -58 -15 -58 -8 0 -15 9 -15 20 0 11
-4 20 -9 20 -5 0 -16 3 -25 6 -11 4 -16 1 -16 -10 0 -25 -19 -19 -30 9 -9 24
-40 36 -40 15 0 -5 -7 -10 -15 -10 -19 0 -19 -10 2 -40 39 -57 106 -85 161
-67 43 14 82 66 82 110 0 48 -37 112 -81 143 -46 32 -133 44 -160 22z m210
-135 c0 -49 -8 -93 -19 -93 -4 0 -6 17 -5 38 1 20 3 49 4 65 2 41 19 32 20
-10z"/>
<path d="M174 798 c13 -68 77 -67 84 1 3 31 3 31 -44 31 l-46 0 6 -32z"/>
<path d="M2312 778 c2 -12 11 -24 21 -26 14 -3 18 1 15 20 -2 12 -11 24 -21
26 -14 3 -18 -1 -15 -20z"/>
<path d="M3416 758 c-4 -23 -13 -56 -21 -72 -20 -43 -55 -188 -48 -198 3 -5
12 -3 21 5 10 8 35 18 57 21 l40 7 1 70 c1 59 -1 69 -14 64 -24 -9 -30 12 -24
81 5 72 -2 86 -12 22z"/>
<path d="M2388 764 c-12 -11 4 -34 24 -34 13 0 18 6 16 17 -3 18 -29 29 -40
17z"/>
<path d="M1978 667 c-5 -10 -8 -29 -8 -42 0 -28 -19 -43 -30 -24 -17 26 -40
-10 -40 -62 0 -26 -4 -51 -10 -54 -37 -23 29 -54 120 -56 67 -2 76 -5 109 -34
109 -98 334 -169 571 -182 96 -5 117 -9 128 -25 28 -39 113 -59 167 -38 23 9
26 14 20 40 -6 26 -3 30 22 36 126 29 213 65 249 106 19 20 45 128 31 128 -3
0 -33 -13 -68 -30 -66 -30 -159 -57 -219 -62 -41 -3 -50 -13 -50 -50 0 -24 -4
-27 -30 -25 -28 2 -30 4 -30 45 0 43 -21 79 -39 67 -5 -3 -11 7 -13 22 -4 27
-5 26 -28 -21 l-25 -48 -100 6 c-317 21 -572 118 -619 236 -16 40 -29 49 -41
30 -3 -5 -17 -10 -30 -10 -19 0 -24 6 -27 33 -2 25 -5 28 -10 14z"/>
<path d="M1230 594 l-35 -13 31 0 c17 -1 37 6 44 14 15 18 8 17 -40 -1z"/>
<path d="M1172 500 c3 -30 7 -35 32 -38 33 -4 46 10 46 50 0 25 -3 27 -40 25
-40 -1 -41 -2 -38 -37z"/>
<path d="M3337 434 c-11 -12 -8 -59 5 -72 28 -28 78 -1 78 44 0 19 -5 24 -24
24 -13 0 -31 2 -38 5 -8 3 -17 2 -21 -1z"/>
<path d="M1996 401 c-4 -7 -5 -15 -2 -18 9 -9 19 4 14 18 -4 11 -6 11 -12 0z"/>
<path d="M1913 334 c-3 -8 -1 -27 6 -40 9 -21 17 -25 44 -22 29 3 32 6 35 41
l3 37 -41 0 c-28 0 -43 -5 -47 -16z"/>
<path d="M2918 103 c7 -3 16 -2 19 1 4 3 -2 6 -13 5 -11 0 -14 -3 -6 -6z"/>
<path d="M2862 32 c3 -24 8 -27 44 -30 36 -3 42 0 47 20 4 12 5 23 4 24 -1 0
-24 4 -50 7 -48 7 -48 7 -45 -21z"/>
</g>
</svg>
