<?xml version="1.0" standalone="no"?>
<!DOCTYPE svg PUBLIC "-//W3C//DTD SVG 20010904//EN"
 "http://www.w3.org/TR/2001/REC-SVG-20010904/DTD/svg10.dtd">
<svg version="1.0" xmlns="http://www.w3.org/2000/svg"
 width="419.000000pt" height="419.000000pt" viewBox="0 0 419.000000 419.000000"
 preserveAspectRatio="xMidYMid meet">
<metadata>
Created by potrace 1.11, written by Peter Selinger 2001-2013
</metadata>
<g transform="translate(0.000000,419.000000) scale(0.100000,-0.100000)"
fill="#000000" stroke="none">
<path d="M2225 3912 c-108 -105 -157 -141 -245 -184 -41 -20 -131 -63 -200
-96 -69 -33 -152 -79 -185 -101 -33 -23 -85 -58 -115 -78 -30 -20 -78 -54
-106 -75 l-52 -39 -61 37 c-60 36 -62 36 -150 32 -78 -4 -94 -8 -137 -36 -27
-17 -61 -46 -75 -64 -47 -60 -54 -98 -54 -294 l0 -181 -60 14 c-33 8 -76 18
-95 23 -19 6 -174 41 -345 80 -171 39 -318 73 -327 76 -14 4 -18 0 -18 -20 0
-25 23 -38 90 -50 14 -2 66 -14 115 -26 50 -12 101 -24 115 -26 14 -3 149 -34
300 -69 151 -35 289 -66 307 -70 18 -3 42 -9 55 -14 13 -5 25 -9 28 -9 25 -1
81 -16 85 -22 3 -5 -3 -6 -12 -4 -40 9 -153 10 -153 2 0 -5 -5 -6 -12 -2 -10
6 -48 6 -168 0 -14 -1 -29 -4 -35 -7 -5 -2 -25 -4 -43 -4 -17 0 -32 -2 -32 -5
0 -3 -15 -6 -33 -7 -43 -2 -126 -17 -134 -23 -2 -2 -7 -4 -13 -5 -5 -1 -13 -4
-17 -5 -5 -1 -12 -3 -18 -4 -14 -3 -47 -16 -67 -27 -10 -5 -25 -9 -33 -9 -9 0
-18 -7 -21 -15 -4 -8 -11 -15 -16 -15 -18 0 -98 -43 -98 -52 0 -5 -4 -7 -9 -4
-13 8 -91 -83 -92 -108 -1 -12 -3 -79 -4 -151 -2 -167 0 -158 -33 -173 -29
-13 -33 -21 -35 -83 -1 -31 26 -113 43 -129 3 -3 7 -14 8 -25 2 -11 13 -37 23
-58 11 -21 17 -42 14 -46 -3 -5 0 -11 6 -13 18 -6 50 -109 55 -178 11 -160 11
-262 -2 -275 -7 -7 -13 -31 -12 -53 0 -22 -3 -46 -8 -54 -14 -22 -14 -40 1
-68 8 -15 11 -30 8 -34 -4 -3 -2 -6 3 -6 6 0 11 -16 12 -36 4 -52 17 -71 46
-70 33 2 38 8 43 58 3 24 9 44 14 46 4 2 6 9 3 16 -3 7 7 18 20 26 24 12 28
10 67 -28 23 -23 46 -42 52 -42 5 0 15 -6 21 -14 6 -7 38 -23 71 -35 33 -13
67 -26 75 -30 14 -7 90 -27 136 -36 11 -2 19 -4 19 -5 0 -1 18 -4 40 -6 45 -6
80 -12 80 -14 0 -3 86 -9 162 -11 78 -2 77 -2 111 -40 24 -27 36 -70 35 -125
0 -39 26 -58 61 -44 18 7 26 19 31 52 4 24 16 62 27 85 10 23 18 52 16 64 -3
19 2 23 32 24 49 2 149 25 155 35 3 5 11 7 19 4 35 -13 236 107 236 142 0 8 5
14 10 14 6 0 9 3 8 8 -2 4 2 7 7 7 6 0 9 -10 8 -22 -1 -14 3 -23 12 -23 8 0
15 -4 15 -9 0 -5 6 -8 13 -7 20 3 52 24 50 33 -4 11 17 11 44 0 21 -9 22 -15
21 -126 -1 -97 -4 -121 -22 -150 -13 -23 -16 -36 -9 -38 8 -3 9 -12 3 -28 -5
-12 -6 -26 -3 -29 4 -3 2 -6 -4 -6 -17 0 -25 -31 -12 -46 6 -8 8 -14 4 -14 -4
0 -2 -7 5 -15 6 -8 9 -19 6 -24 -4 -5 -2 -12 4 -16 5 -3 10 -23 10 -43 0 -47
9 -60 43 -66 31 -5 58 25 53 59 -2 11 -1 25 3 30 3 6 6 17 8 25 1 8 7 16 13
18 6 2 16 10 23 17 15 14 39 5 67 -24 20 -22 73 -56 83 -53 4 1 7 -3 7 -9 0
-5 5 -7 10 -4 6 3 10 2 10 -4 0 -8 88 -43 100 -39 3 1 16 -5 30 -12 14 -7 34
-15 45 -16 26 -4 60 -12 60 -14 0 -7 189 -31 280 -35 67 -4 65 -3 65 -18 0 -7
9 -23 19 -34 11 -12 22 -42 25 -68 3 -25 8 -50 11 -55 3 -5 0 -10 -5 -12 -16
-5 28 -48 48 -48 25 0 45 16 47 37 0 10 3 23 7 28 3 6 8 24 12 40 4 17 13 37
20 45 19 22 26 61 15 82 -5 10 -6 18 -2 19 4 0 15 2 23 4 8 2 31 6 50 10 46 8
161 55 178 72 7 7 17 13 21 13 4 0 14 11 21 25 13 24 40 35 40 16 0 -5 11 -11
25 -13 29 -6 52 15 57 52 1 14 6 27 9 30 3 3 18 30 32 60 22 45 24 56 12 62
-13 8 -13 27 0 84 3 12 -1 27 -8 33 -11 9 -10 28 5 108 10 54 20 112 22 128 8
57 17 90 38 135 22 48 25 54 27 71 0 5 5 8 10 5 4 -3 14 13 21 34 7 22 16 40
20 40 8 0 34 52 32 63 -1 4 3 7 9 7 5 0 7 5 4 10 -3 6 0 13 8 16 9 3 18 17 22
32 4 15 11 29 16 32 4 3 10 15 12 25 2 11 7 28 12 38 4 9 4 30 0 45 -9 37 -8
66 9 194 5 31 -37 126 -58 134 -8 3 -18 14 -21 25 -4 11 -11 17 -16 14 -5 -4
-9 -2 -9 3 0 5 -18 17 -41 27 -22 10 -46 26 -52 35 -7 8 -33 26 -59 40 -26 13
-46 25 -45 27 2 1 27 -4 57 -12 30 -8 66 -16 80 -18 14 -3 75 -16 135 -30 544
-127 490 -119 481 -71 -4 22 -10 59 -13 83 -6 57 -80 284 -133 405 -16 39 -19
61 -15 100 9 70 14 639 6 701 -6 50 -6 50 -41 49 -19 -1 -100 -27 -180 -59
-80 -32 -152 -57 -160 -57 -8 0 -58 26 -110 58 -129 78 -404 214 -524 258
-100 38 -245 78 -326 91 -53 9 -105 43 -145 97 -39 51 -180 191 -202 200 -32
12 -37 9 -118 -70z m-230 -1392 c122 -29 358 -84 585 -136 113 -25 206 -47
207 -48 1 -1 -57 -2 -130 -2 -152 -1 -276 -10 -357 -28 -54 -11 -67 -15 -109
-30 -25 -8 -49 -12 -54 -9 -6 3 -8 2 -4 -3 3 -5 -12 -19 -33 -31 l-38 -22 2
72 c2 58 -1 78 -17 102 -36 54 -112 117 -159 132 -9 3 -19 11 -22 18 -6 15 7
14 129 -15z m-1761 -423 c-1 -10 1 -17 5 -17 3 0 6 -21 7 -48 0 -26 4 -85 7
-132 14 -170 20 -266 21 -302 1 -21 5 -38 11 -38 5 0 4 -5 -3 -12 -6 -6 -8
-18 -3 -27 5 -9 8 -28 7 -43 -1 -16 2 -28 7 -28 5 0 4 -6 -2 -13 -6 -8 -8 -16
-5 -19 3 -4 8 -30 10 -58 4 -44 3 -52 -10 -47 -9 4 -18 2 -21 -3 -4 -6 -11 -5
-18 2 -8 7 -13 50 -13 127 -1 146 -9 207 -33 264 -11 25 -17 48 -14 51 4 3 1
6 -5 6 -7 0 -12 6 -12 13 0 8 -7 28 -16 46 -9 17 -17 37 -18 44 -2 7 -8 23
-14 37 -5 14 -17 42 -26 63 -9 20 -13 36 -9 35 16 -3 43 14 37 24 -3 5 3 12
15 15 12 3 21 10 21 15 0 5 5 6 12 2 8 -5 9 0 6 14 -4 13 -1 22 5 23 8 0 8 2
0 6 -7 2 -13 16 -13 30 l0 25 33 -19 c17 -11 31 -27 31 -36z m3378 -547 c-19
-36 -39 -68 -44 -71 -5 -3 -10 -16 -11 -27 -1 -12 -5 -22 -9 -22 -8 0 -31 -50
-28 -59 1 -2 -5 -8 -14 -13 -9 -5 -14 -13 -11 -19 4 -5 -1 -9 -9 -9 -9 0 -16
1 -16 3 0 1 7 34 15 72 9 39 18 86 21 105 2 19 6 44 8 54 1 11 9 23 17 27 87
42 95 44 105 35 9 -8 2 -28 -24 -76z m-132 -237 c0 -5 -5 -15 -10 -23 -7 -12
-9 -10 -7 8 1 19 17 33 17 15z m-1444 -253 c12 0 12 -4 4 -20 -6 -11 -7 -20
-2 -20 4 0 8 -36 9 -80 0 -61 -3 -80 -13 -81 -8 -1 -19 -2 -26 -3 -6 -1 -13
14 -16 33 -2 24 0 31 9 25 9 -5 9 -3 3 7 -5 8 -9 44 -9 82 -1 53 2 66 13 62 8
-3 20 -5 28 -5z"/>
</g>
</svg>
