<?xml version="1.0" standalone="no"?>
<!DOCTYPE svg PUBLIC "-//W3C//DTD SVG 20010904//EN"
 "http://www.w3.org/TR/2001/REC-SVG-20010904/DTD/svg10.dtd">
<svg version="1.0" xmlns="http://www.w3.org/2000/svg"
 width="490.000000pt" height="490.000000pt" viewBox="0 0 490.000000 490.000000"
 preserveAspectRatio="xMidYMid meet">
<metadata>
Created by potrace 1.11, written by Peter Selinger 2001-2013
</metadata>
<g transform="translate(0.000000,490.000000) scale(0.100000,-0.100000)"
fill="#000000" stroke="none">
<path d="M2685 4447 c-22 -12 -159 -151 -211 -213 -25 -31 -47 -45 -82 -54
-26 -7 -51 -16 -57 -20 -5 -4 -26 -11 -45 -15 -56 -12 -228 -100 -330 -169
-25 -17 -52 -35 -62 -41 -34 -21 -103 -72 -172 -129 -115 -94 -110 -93 -147
-61 -66 55 -151 82 -242 79 -62 -2 -72 -6 -131 -48 -66 -47 -102 -93 -108
-136 -2 -14 -7 -31 -11 -37 -19 -30 -27 -254 -14 -373 5 -47 2 -50 -36 -39
-17 6 -42 12 -55 14 -38 8 -66 13 -107 24 -22 5 -51 12 -65 15 -14 3 -50 12
-80 20 -30 8 -66 17 -80 20 -53 11 -70 15 -79 20 -5 3 -24 8 -44 10 -19 3 -63
12 -98 21 -35 10 -75 19 -89 21 -14 3 -49 12 -79 20 -29 8 -67 17 -85 19 -17
3 -64 13 -104 24 l-73 19 3 -41 c3 -38 6 -42 38 -49 56 -13 70 -17 93 -24 12
-4 36 -8 52 -9 17 -2 31 -4 33 -5 1 -1 5 -3 10 -4 4 -1 16 -5 27 -9 20 -6 64
-16 100 -21 11 -1 37 -8 58 -15 21 -7 48 -14 60 -16 36 -6 81 -15 102 -22 27
-9 46 -14 70 -17 11 -1 40 -8 65 -15 25 -8 52 -15 60 -16 8 -2 16 -4 18 -5 1
-2 7 -3 12 -4 17 -2 11 -21 -8 -22 -16 -1 -29 -4 -117 -25 -22 -5 -50 -11 -62
-12 -12 -2 -55 -19 -95 -39 -40 -19 -91 -41 -113 -47 -73 -23 -145 -78 -167
-128 -21 -48 -27 -132 -14 -210 4 -23 3 -44 -2 -47 -5 -3 -7 -26 -5 -50 4 -39
1 -48 -22 -70 -15 -14 -33 -42 -40 -63 -14 -42 -18 -30 72 -247 25 -61 46
-115 48 -121 1 -5 10 -28 20 -50 25 -56 31 -370 8 -397 -9 -10 -16 -37 -17
-60 -1 -24 -6 -52 -13 -64 -9 -16 -9 -26 1 -45 18 -35 29 -78 31 -121 2 -45
19 -68 51 -68 35 0 56 27 51 66 -8 57 56 130 80 91 10 -15 107 -97 115 -97 4
0 35 -13 70 -29 35 -16 65 -30 68 -30 3 0 19 -5 35 -11 17 -7 44 -14 60 -17
17 -3 38 -10 49 -15 10 -6 35 -12 55 -14 20 -1 47 -5 61 -9 55 -12 217 -27
281 -27 31 0 42 -6 66 -36 38 -48 44 -65 34 -99 -9 -30 2 -73 22 -85 39 -25
81 9 90 73 3 24 16 67 29 94 12 28 22 53 23 57 0 12 9 16 45 21 19 3 46 8 60
11 14 4 36 8 50 11 63 12 73 15 84 24 7 6 21 12 32 14 49 8 125 53 170 98 48
48 49 49 64 29 24 -32 58 -33 87 -2 23 25 26 26 51 11 27 -15 27 -15 28 -134
1 -105 -1 -123 -18 -141 -13 -14 -20 -39 -21 -70 -1 -27 -8 -58 -14 -70 -10
-17 -8 -31 8 -73 11 -29 18 -65 16 -79 -10 -69 38 -111 92 -81 20 11 25 22 26
57 2 60 2 58 35 82 l30 22 38 -29 c56 -44 179 -115 195 -112 1 0 27 -9 57 -21
30 -13 66 -24 80 -25 14 -2 27 -4 30 -5 3 -1 9 -2 13 -1 4 1 16 -3 25 -8 30
-16 135 -30 263 -34 39 -2 74 -8 83 -16 36 -30 61 -76 62 -118 3 -77 13 -109
38 -121 43 -19 69 5 84 77 6 35 22 76 33 93 12 16 22 42 23 58 2 34 4 37 36
44 118 25 213 68 267 118 28 27 35 29 60 21 51 -18 79 4 88 70 4 30 15 57 37
89 15 22 17 37 12 78 -4 32 -2 55 5 64 8 10 6 19 -9 38 -15 20 -18 32 -11 56
5 17 7 33 4 35 -2 3 1 34 7 68 7 35 14 78 17 94 2 17 7 37 10 45 3 8 7 28 9
45 5 36 44 113 154 305 l83 145 3 88 c1 48 6 93 11 100 13 18 8 129 -6 156
-19 34 -3 41 59 24 30 -8 64 -16 75 -17 24 -4 104 -25 125 -33 8 -3 26 -8 40
-10 39 -5 65 -10 65 -12 0 -2 11 -4 25 -7 14 -2 32 -7 40 -10 8 -4 24 -8 35
-9 11 -2 31 -6 45 -9 14 -4 36 -9 50 -12 14 -2 32 -7 40 -11 8 -3 22 -7 30 -8
8 -1 34 -5 58 -9 l42 -8 0 39 c0 25 -5 40 -12 41 -7 0 -26 4 -43 7 -16 3 -38
7 -47 9 -26 4 -33 14 -34 49 -1 18 -7 52 -14 77 -8 25 -15 54 -17 65 -2 11
-12 44 -23 73 -11 29 -20 59 -20 66 0 22 -119 279 -132 284 -5 2 -8 9 -8 15 0
7 -16 32 -35 56 -22 27 -33 51 -31 65 3 11 5 21 6 21 3 0 10 40 15 82 3 23 10
54 16 70 6 15 10 30 10 33 -1 18 14 58 27 73 8 9 12 17 9 17 -3 0 -1 15 5 33
25 81 30 120 32 234 1 95 -3 131 -16 162 -19 45 -31 46 -112 11 -25 -10 -46
-17 -46 -13 0 3 -6 0 -13 -6 -8 -6 -22 -12 -33 -14 -10 -2 -30 -9 -44 -17 -14
-8 -34 -15 -44 -17 -11 -2 -27 -10 -35 -17 -14 -12 -57 -27 -86 -31 -12 -1
-107 35 -120 47 -5 4 -17 8 -27 8 -10 0 -18 4 -18 8 0 5 -12 15 -27 22 -16 8
-40 23 -55 33 -16 10 -28 15 -28 10 0 -4 -6 -1 -13 7 -11 14 -34 27 -107 65
-43 22 -117 55 -123 55 -3 0 -18 5 -34 12 -31 12 -50 18 -73 22 -8 1 -30 10
-47 19 -18 10 -35 17 -38 17 -3 0 -7 1 -10 1 -3 1 -8 2 -12 3 -15 3 -101 37
-175 71 -54 23 -171 66 -198 72 -66 13 -100 25 -100 33 0 13 -71 112 -141 196
-71 86 -110 110 -144 91z m-270 -1667 c0 -1 11 -3 25 -5 14 -1 48 -9 75 -17
28 -8 56 -13 63 -11 6 3 12 0 12 -6 0 -6 3 -10 8 -10 4 1 15 1 25 0 33 -2 8
-19 -45 -31 -29 -6 -86 -27 -127 -46 -59 -29 -75 -33 -82 -22 -5 7 -7 20 -4
28 5 18 9 91 5 105 -5 20 0 25 23 21 12 -3 22 -5 22 -6z m-2037 -263 c11 -13
23 -117 26 -232 1 -28 5 -55 8 -61 4 -5 7 -32 7 -59 0 -28 3 -84 6 -125 4 -41
9 -106 11 -145 7 -97 14 -186 17 -210 2 -16 -4 -20 -33 -20 l-35 0 -2 135 c0
74 -4 155 -7 181 -6 41 -96 282 -133 353 -14 26 -13 31 6 57 12 15 21 33 21
38 0 6 10 16 23 22 30 16 37 29 32 58 -2 13 -2 28 1 33 6 9 35 -4 52 -25z
m3676 -601 c-14 -22 -45 -79 -69 -126 -81 -155 -110 -168 -80 -35 9 39 16 78
16 87 0 10 4 20 9 23 5 3 7 12 3 20 -8 22 15 45 72 71 68 32 85 18 49 -40z
m-1722 -543 c4 -20 8 -64 13 -130 4 -66 3 -74 -17 -84 -16 -9 -23 -8 -29 2
-13 21 -9 203 5 211 14 10 26 10 28 1z"/>
</g>
</svg>
